<?xml version="1.0" encoding="utf-8"?>
<!-- Generator: Adobe Illustrator 17.0.0, SVG Export Plug-In . SVG Version: 6.00 Build 0)  -->
<!DOCTYPE svg PUBLIC "-//W3C//DTD SVG 1.1//EN" "http://www.w3.org/Graphics/SVG/1.1/DTD/svg11.dtd">
<svg version="1.1" id="Layer_1" xmlns="http://www.w3.org/2000/svg" xmlns:xlink="http://www.w3.org/1999/xlink" x="0px" y="0px"
	 width="223.664px" height="412px" viewBox="144.168 50 223.664 412" enable-background="new 144.168 50 223.664 412"
	 xml:space="preserve">
<path id="smartphone-4-icon" d="M334.832,50H177.168c-18.227,0-33,14.774-33,33v346c0,18.226,14.773,33,33,33h157.664
	c18.227,0,33-14.774,33-33V83C367.832,64.774,353.059,50,334.832,50z M238.5,80.222h37c2.209,0,4,1.791,4,4s-1.791,4-4,4h-37
	c-2.209,0-4-1.791-4-4S236.291,80.222,238.5,80.222z M257.002,443.056c-8.838,0-16-7.163-16-16s7.162-16,16-16
	c8.834,0,16,7.163,16,16S265.836,443.056,257.002,443.056z M342.75,393.75H169.252v-275.5H342.75V393.75z"/>
</svg>
